<svg width="199" height="40" viewBox="0 0 199 40" fill="none" xmlns="http://www.w3.org/2000/svg">
<g clip-path="url(#clip0_290_1314)">
<path d="M109.65 13.092V9.64108H99.055V13.092H107.272V20.4218H99.055V23.4393H109.65V19.9883H119.811V31.636H88.46V1.44434H119.811V13.092H109.65Z" fill="white"/>
<path d="M135.596 31.636H123.919L137.326 1.44434H150.733L164.14 31.636H152.463L150.519 26.8903H137.546L135.602 31.636H135.596ZM144.241 10.9359H143.807L140.567 19.1326H147.487L144.241 10.9359Z" fill="white"/>
<path d="M198.946 19.127V31.636H169.105V1.44434H179.7V23.0114H188.779V19.127H198.941H198.946Z" fill="white"/>
<path d="M0.386719 31.6866V19.2789H10.4971V23.0451H19.6437V1.48363H30.2274V21.3956H43.6853V10.5248H40.2138V0.436523H51.795V31.6922H0.386719V31.6866Z" fill="white"/>
<path d="M59.7752 9.23V0.746148C59.8541 0.723629 59.933 0.672969 60.0175 0.672969C62.841 0.712376 65.6982 0.515332 68.4879 0.841851C74.8449 1.58496 79.7873 4.60808 82.3684 10.6824C84.8481 16.526 82.8362 23.1746 77.5331 27.2336C74.3151 29.6993 70.6407 30.8422 66.6168 30.921C64.5147 30.9604 62.407 30.9266 60.3049 30.9266C60.1528 30.9266 59.995 30.8984 59.7977 30.8816V22.3358C60.2655 22.3358 60.7107 22.3358 61.1559 22.3358C62.9875 22.3189 64.8303 22.4202 66.645 22.2513C69.2938 22.0036 71.4635 19.9657 72.1623 17.331C72.7991 14.9272 71.8354 12.2475 69.7672 10.6374C68.5837 9.71415 67.2537 9.25252 65.7433 9.26941C63.8892 9.29192 62.0351 9.26941 60.1753 9.26941C60.0626 9.26941 59.9555 9.24689 59.7695 9.23H59.7752Z" fill="white"/>
<path d="M37.391 40.0184C35.3791 40.0184 33.4179 40.0297 31.4511 40.0016C31.3046 40.0016 31.0397 39.7201 31.0397 39.5681C31.0115 37.7384 31.0115 35.9088 31.0397 34.0792C31.0397 33.9216 31.2989 33.6401 31.4398 33.6344C33.401 33.6063 35.3679 33.6119 37.3854 33.6119V40.0128L37.391 40.0184Z" fill="white"/>
<path d="M40.4678 40.0129V33.6684C40.665 33.6458 40.8566 33.6121 41.0482 33.6121C42.7671 33.6121 44.4803 33.6289 46.1992 33.5952C46.7515 33.5839 46.8868 33.7866 46.8811 34.2989C46.8586 35.9934 46.8755 37.6879 46.8699 39.3824C46.8699 39.6583 46.9544 40.0129 46.4866 40.0129C44.5029 40.0129 42.5191 40.0129 40.4678 40.0129Z" fill="white"/>
</g>
<defs>
<clipPath id="clip0_290_1314">
<rect width="199" height="40" fill="white"/>
</clipPath>
</defs>
</svg>
