<svg width="24" height="24" viewBox="0 0 24 24" fill="none" xmlns="http://www.w3.org/2000/svg">
<path d="M3.00039 12.0001C3.00039 11.8012 3.0794 11.6104 3.22006 11.4697C3.36071 11.3291 3.55148 11.2501 3.75039 11.2501L18.4401 11.2501L12.9698 5.7807C12.9001 5.71101 12.8448 5.62829 12.8071 5.53724C12.7694 5.4462 12.75 5.34862 12.75 5.25007C12.75 5.15152 12.7694 5.05394 12.8071 4.9629C12.8448 4.87185 12.9001 4.78913 12.9698 4.71945C13.0394 4.64976 13.1222 4.59449 13.2132 4.55678C13.3043 4.51906 13.4018 4.49965 13.5004 4.49965C13.5989 4.49965 13.6965 4.51906 13.7876 4.55678C13.8786 4.59449 13.9613 4.64976 14.031 4.71945L20.781 11.4694C20.8507 11.5391 20.9061 11.6218 20.9438 11.7129C20.9815 11.8039 21.001 11.9015 21.001 12.0001C21.001 12.0986 20.9815 12.1962 20.9438 12.2873C20.9061 12.3783 20.8507 12.461 20.781 12.5307L14.031 19.2807C13.8903 19.4214 13.6994 19.5005 13.5004 19.5005C13.3014 19.5005 13.1105 19.4214 12.9698 19.2807C12.829 19.14 12.75 18.9491 12.75 18.7501C12.75 18.551 12.829 18.3602 12.9698 18.2194L18.4401 12.7501L3.75039 12.7501C3.55148 12.7501 3.36071 12.6711 3.22006 12.5304C3.0794 12.3897 3.00039 12.199 3.00039 12.0001Z" fill="white"/>
</svg>
