<svg width="25" height="24" viewBox="0 0 25 24" fill="none" xmlns="http://www.w3.org/2000/svg">
<path d="M19.9 5.25H17.3013L16.0235 3.33375C15.955 3.23114 15.8623 3.147 15.7535 3.08879C15.6448 3.03057 15.5234 3.00007 15.4 3H9.40002C9.27668 3.00007 9.15525 3.03057 9.0465 3.08879C8.93776 3.147 8.84505 3.23114 8.77659 3.33375L7.49784 5.25H4.90002C4.30329 5.25 3.73099 5.48705 3.30903 5.90901C2.88708 6.33097 2.65002 6.90326 2.65002 7.5V18C2.65002 18.5967 2.88708 19.169 3.30903 19.591C3.73099 20.0129 4.30329 20.25 4.90002 20.25H19.9C20.4968 20.25 21.0691 20.0129 21.491 19.591C21.913 19.169 22.15 18.5967 22.15 18V7.5C22.15 6.90326 21.913 6.33097 21.491 5.90901C21.0691 5.48705 20.4968 5.25 19.9 5.25ZM20.65 18C20.65 18.1989 20.571 18.3897 20.4304 18.5303C20.2897 18.671 20.0989 18.75 19.9 18.75H4.90002C4.70111 18.75 4.51035 18.671 4.36969 18.5303C4.22904 18.3897 4.15002 18.1989 4.15002 18V7.5C4.15002 7.30109 4.22904 7.11032 4.36969 6.96967C4.51035 6.82902 4.70111 6.75 4.90002 6.75H7.90002C8.02353 6.75008 8.14515 6.71966 8.25407 6.66143C8.36299 6.60321 8.45585 6.51899 8.5244 6.41625L9.80127 4.5H14.9978L16.2756 6.41625C16.3442 6.51899 16.4371 6.60321 16.546 6.66143C16.6549 6.71966 16.7765 6.75008 16.9 6.75H19.9C20.0989 6.75 20.2897 6.82902 20.4304 6.96967C20.571 7.11032 20.65 7.30109 20.65 7.5V18ZM12.4 8.25C11.5842 8.25 10.7866 8.49193 10.1083 8.94519C9.42994 9.39845 8.90123 10.0427 8.58902 10.7964C8.27681 11.5502 8.19512 12.3796 8.35429 13.1797C8.51345 13.9799 8.90632 14.7149 9.48321 15.2918C10.0601 15.8687 10.7951 16.2616 11.5953 16.4207C12.3954 16.5799 13.2248 16.4982 13.9786 16.186C14.7323 15.8738 15.3766 15.3451 15.8298 14.6667C16.2831 13.9884 16.525 13.1908 16.525 12.375C16.5238 11.2814 16.0888 10.2329 15.3155 9.45955C14.5422 8.68624 13.4937 8.25124 12.4 8.25ZM12.4 15C11.8808 15 11.3733 14.846 10.9417 14.5576C10.51 14.2692 10.1735 13.8592 9.97484 13.3795C9.77616 12.8999 9.72418 12.3721 9.82546 11.8629C9.92675 11.3537 10.1768 10.886 10.5439 10.5188C10.911 10.1517 11.3787 9.90172 11.8879 9.80044C12.3971 9.69915 12.9249 9.75114 13.4046 9.94982C13.8842 10.1485 14.2942 10.4849 14.5826 10.9166C14.8711 11.3483 15.025 11.8558 15.025 12.375C15.025 13.0712 14.7485 13.7389 14.2562 14.2312C13.7639 14.7234 13.0962 15 12.4 15Z" fill="#222222"/>
</svg>
